<svg width="100" height="100" viewBox="0 0 100 100" fill="none" xmlns="http://www.w3.org/2000/svg">
<path d="M54.8185 99C52.2377 99 50.151 98.4776 48.5586 97.4327C47.021 96.3878 45.9228 95.0129 45.2638 93.3081C44.6049 91.6033 44.2754 89.7335 44.2754 87.6987C44.2754 84.124 45.0716 80.6044 46.6641 77.1397C48.3115 73.7301 50.1235 70.5954 52.1004 67.7357C55.0107 63.5011 57.9211 59.9815 60.8314 57.1768C62.8371 55.2424 64.9308 53.4591 67.1124 51.8267C69.0209 50.3986 70.1141 48.0837 69.8919 45.7104C69.7272 43.9506 69.5075 42.0258 69.2329 39.936C69.0133 37.7912 68.7936 35.7015 68.574 33.6667C68.5575 33.5139 68.5412 33.3629 68.525 33.2136C68.4084 32.1374 66.8672 31.9833 66.5148 33.0067C65.9657 34.6016 65.3891 36.2789 64.7851 38.0387C63.4672 41.6134 61.9846 45.078 60.3372 48.4327C58.6898 51.7873 56.8503 54.7845 54.8185 57.4243C52.8417 60.064 50.6727 62.1813 48.3114 63.7761C46.0051 65.3159 43.5616 66.0859 40.9807 66.0859H40.3217C37.686 65.9209 35.9013 64.766 34.9678 62.6212C34.0343 60.4764 33.5676 57.9742 33.5676 55.1145C33.5676 52.8597 33.7323 50.5774 34.0618 48.2677C34.4462 45.9579 34.858 43.8131 35.2973 41.8333C35.7366 39.8535 36.0661 38.3412 36.2857 37.2963C36.3955 36.7464 36.6152 35.674 36.9447 34.0791C37.2741 32.4293 37.6311 30.477 38.0154 28.2222C38.4547 25.9675 38.8117 23.6027 39.0862 21.1279C39.3608 18.5982 39.4981 16.2334 39.4981 14.0337C39.4981 11.284 39.1961 8.97419 38.592 7.10438C37.988 5.23457 36.8623 4.29966 35.2149 4.29966C33.4577 4.29966 31.8378 5.04209 30.3552 6.52693C28.8726 7.95679 27.5272 9.8541 26.3192 12.2189C25.166 14.5286 24.1501 17.0584 23.2716 19.8081C22.4479 22.5578 21.8164 25.28 21.3771 27.9748C20.9378 30.6145 20.7181 32.9517 20.7181 34.9865C20.7181 36.3614 20.828 37.5438 21.0476 38.5337C21.2673 39.4686 21.6242 40.0735 22.1184 40.3485C22.5028 40.5685 22.695 40.8434 22.695 41.1734C22.695 41.8333 22.3381 42.1633 21.6242 42.1633C21.2398 42.1633 20.8829 41.9983 20.5534 41.6684C19.8396 40.8434 19.2355 39.4686 18.7413 37.5438C18.2471 35.619 18 33.3917 18 30.862C18 29.3221 18.1098 27.7273 18.3295 26.0774C18.5491 24.4276 18.8786 22.7503 19.3179 21.0455C19.9219 18.7907 20.7731 16.5084 21.8713 14.1987C22.9695 11.8339 24.3423 9.66162 25.9897 7.68182C27.6371 5.64702 29.559 4.02469 31.7555 2.81481C34.0069 1.60494 36.5328 1 39.3333 1C41.3102 1 42.8477 1.52245 43.9459 2.56734C45.0442 3.55724 45.813 4.9046 46.2523 6.60942C46.7465 8.31425 46.9936 10.2116 46.9936 12.3013C46.9936 14.7761 46.7465 17.3608 46.2523 20.0556C45.813 22.6953 45.2913 25.1425 44.6873 27.3973C44.1381 29.5971 43.6988 31.3294 43.3694 32.5943C43.2046 33.2542 42.8752 34.3816 42.3809 35.9764C41.9417 37.5713 41.4474 39.4411 40.8983 41.5859C40.4041 43.6757 39.9648 45.8204 39.5804 48.0202C39.251 50.22 39.0862 52.2823 39.0862 54.2071C39.0862 56.2419 39.3882 57.9742 39.9923 59.404C40.5963 60.7789 41.6671 61.5213 43.2046 61.6313H43.6165C45.5933 61.6313 47.5701 60.8339 49.547 59.2391C51.5238 57.6442 53.3908 55.4994 55.148 52.8047C56.9601 50.055 58.6075 46.9753 60.0901 43.5657C61.5727 40.101 62.8082 36.5539 63.7967 32.9242C64.6752 29.7346 65.2793 26.7099 65.6088 23.8502C65.9382 20.9905 66.2128 18.4607 66.4324 16.2609C66.6521 14.0062 66.9816 12.2464 67.4208 10.9815C67.9151 9.71661 68.7113 9.05668 69.8095 9.00168C70.0292 9.00168 70.2214 9.13917 70.3861 9.41414C70.519 9.58058 70.6118 9.69664 70.6642 9.76234C70.6967 9.80301 70.7459 9.8266 70.7979 9.8266C70.9627 9.8266 71.1274 10.404 71.2921 11.5589C71.4569 12.6588 71.5942 13.9512 71.704 15.436C71.8138 16.9209 71.8962 18.2682 71.9511 19.4781C72.0609 20.633 72.1433 21.2654 72.1982 21.3754C72.3629 21.7604 72.5551 22.6678 72.7748 24.0976C73.0493 25.4725 73.3788 27.3698 73.7632 29.7896C74.2025 32.6493 74.6143 35.4815 74.9987 38.2862C75.3654 40.9091 75.707 43.482 76.0237 46.0048C76.0461 46.1832 76.2382 46.2859 76.399 46.2054C77.1677 45.7654 77.8816 45.4905 78.5405 45.3805C79.1995 45.2705 79.7486 45.2155 80.1879 45.2155C80.6272 45.2155 81.0116 45.2705 81.341 45.3805C81.7254 45.4905 81.9451 45.7654 82 46.2054C82 46.4254 81.8627 46.5904 81.5882 46.7003C81.3685 46.8103 81.1214 46.8653 80.8468 46.8653C80.0781 46.9203 79.2544 47.1128 78.3758 47.4428C77.1103 47.9497 76.4878 49.2793 76.5867 50.639C76.791 53.4463 76.8932 56.5604 76.8932 59.9815C76.8932 62.8962 76.6735 66.0859 76.2342 69.5505C75.8498 73.0702 75.1634 76.5623 74.175 80.0269C73.2415 83.4916 71.9236 86.6538 70.2214 89.5135C68.574 92.3732 66.4873 94.6555 63.9614 96.3603C61.4354 98.1201 58.3878 99 54.8185 99ZM55.148 96.7727C57.8936 96.7727 60.1999 96.0853 62.0669 94.7104C63.9888 93.3906 65.5538 91.5758 66.7619 89.266C67.97 86.9562 68.9035 84.3715 69.5624 81.5118C70.2763 78.6521 70.7705 75.6824 71.045 72.6027C71.3196 69.578 71.4569 66.6358 71.4569 63.7761C71.4569 61.2464 71.3745 58.9091 71.2098 56.7643C71.0836 54.2361 68.351 52.9423 66.4441 54.607C65.4195 55.5014 64.3723 56.4955 63.3024 57.5892C60.7216 60.284 58.278 63.2812 55.9717 66.5808C53.7203 69.8805 51.8807 73.2626 50.453 76.7273C49.0802 80.2469 48.3938 83.5466 48.3938 86.6263C48.3938 88.2761 48.6135 89.8709 49.0528 91.4108C49.4921 92.9506 50.2059 94.2155 51.1943 95.2054C52.1828 96.2503 53.5006 96.7727 55.148 96.7727Z" fill="#0B66C2"/>
</svg>
